<svg width="16" height="16" viewBox="0 0 16 16" fill="none" xmlns="http://www.w3.org/2000/svg">
<path d="M12.0001 2.66666H4.00008C3.2637 2.66666 2.66675 3.26362 2.66675 4V12C2.66675 12.7364 3.2637 13.3333 4.00008 13.3333H12.0001C12.7365 13.3333 13.3334 12.7364 13.3334 12V4C13.3334 3.26362 12.7365 2.66666 12.0001 2.66666Z" stroke="#4F4F4F" stroke-width="1.33333" stroke-linecap="round" stroke-linejoin="round"/>
<path d="M10 6H6V10H10V6Z" stroke="#4F4F4F" stroke-width="1.33333" stroke-linecap="round" stroke-linejoin="round"/>
<path d="M6 0.666664V2.66666" stroke="#4F4F4F" stroke-width="1.33333" stroke-linecap="round" stroke-linejoin="round"/>
<path d="M10 0.666664V2.66666" stroke="#4F4F4F" stroke-width="1.33333" stroke-linecap="round" stroke-linejoin="round"/>
<path d="M6 13.3333V15.3333" stroke="#4F4F4F" stroke-width="1.33333" stroke-linecap="round" stroke-linejoin="round"/>
<path d="M10 13.3333V15.3333" stroke="#4F4F4F" stroke-width="1.33333" stroke-linecap="round" stroke-linejoin="round"/>
<path d="M13.3333 6H15.3333" stroke="#4F4F4F" stroke-width="1.33333" stroke-linecap="round" stroke-linejoin="round"/>
<path d="M13.3333 9.33334H15.3333" stroke="#4F4F4F" stroke-width="1.33333" stroke-linecap="round" stroke-linejoin="round"/>
<path d="M0.666748 6H2.66675" stroke="#4F4F4F" stroke-width="1.33333" stroke-linecap="round" stroke-linejoin="round"/>
<path d="M0.666748 9.33334H2.66675" stroke="#4F4F4F" stroke-width="1.33333" stroke-linecap="round" stroke-linejoin="round"/>
</svg>
