<svg width="19" height="16" viewBox="0 0 19 16" fill="none" xmlns="http://www.w3.org/2000/svg">
<path d="M10.6666 11.3334V12.6667C10.6666 13.0349 10.9651 13.3334 11.3332 13.3334H14.6666C15.0348 13.3334 15.3332 13.0349 15.3332 12.6667V11.3334M3.33325 11.3334V12.6667C3.33325 13.0349 3.63173 13.3334 3.99992 13.3334H7.33324C7.70143 13.3334 7.99991 13.0349 7.99991 12.6667V11.3334M17.3332 10.6667V4.6667C17.3332 4.29851 17.0348 4.00003 16.6666 4.00003H1.99992C1.63173 4.00003 1.33325 4.29851 1.33325 4.6667V10.6667C1.33325 11.0349 1.63173 11.3334 1.99992 11.3334H16.6666C17.0348 11.3334 17.3332 11.0349 17.3332 10.6667Z" stroke="#4F4F4F" stroke-width="1.33333"/>
<path d="M4 6.66667L4 8.66667" stroke="#4F4F4F" stroke-width="1.33333" stroke-linecap="round"/>
<line x1="6.66667" y1="6.66671" x2="6.66667" y2="8.66671" stroke="#4F4F4F" stroke-width="1.33333" stroke-linecap="round"/>
<line x1="9.33341" y1="6.66671" x2="9.33341" y2="8.66671" stroke="#4F4F4F" stroke-width="1.33333" stroke-linecap="round"/>
<line x1="11.9999" y1="6.66671" x2="11.9999" y2="8.66671" stroke="#4F4F4F" stroke-width="1.33333" stroke-linecap="round"/>
<line x1="14.6667" y1="6.66671" x2="14.6667" y2="8.66671" stroke="#4F4F4F" stroke-width="1.33333" stroke-linecap="round"/>
</svg>
